HIERARCHY
ROOT hip
{
	OFFSET 0.000000 0.000000 0.000000
	CHANNELS 6 Xposition Yposition Zposition Xrotation Zrotation Yrotation 
	JOINT abdomen
	{
		OFFSET 0.000000 3.422050 0.000000
		CHANNELS 3 Xrotation Zrotation Yrotation 
		JOINT chest
		{
			OFFSET 0.000000 8.486693 -0.6844110
			CHANNELS 3 Xrotation Zrotation Yrotation 
			JOINT neck
			{
				OFFSET 0.000000 10.26616 -0.2737640
				CHANNELS 3 Xrotation Zrotation Yrotation 
				JOINT head
				{
					OFFSET 0.000000 3.148285 0.000000
					CHANNELS 3 Xrotation Zrotation Yrotation 
					End Site
					{
						OFFSET 0.000000 3.148289 0.000000
					}
				}
			}
			JOINT lCollar
			{
				OFFSET 3.422053 6.707223 -0.8212930
				CHANNELS 3 Yrotation Zrotation Xrotation 
				JOINT lShldr
				{
					OFFSET 3.285171 0.000000 0.000000
					CHANNELS 3 Zrotation Yrotation Xrotation 
					JOINT lForeArm
					{
						OFFSET 10.12928 0.000000 0.000000
						CHANNELS 3 Yrotation Zrotation Xrotation 
						JOINT lHand
						{
							OFFSET 8.486692 0.000000 0.000000
							CHANNELS 3 Zrotation Yrotation Xrotation 
							End Site
							{
								OFFSET 4.106464 0.000000 0.000000
							}
						}
					}
				}
			}
			JOINT rCollar
			{
				OFFSET -3.558935 6.707223 -0.8212930
				CHANNELS 3 Yrotation Zrotation Xrotation 
				JOINT rShldr
				{
					OFFSET -3.148289 0.000000 0.000000
					CHANNELS 3 Zrotation Yrotation Xrotation 
					JOINT rForeArm
					{
						OFFSET -10.26616 0.000000 0.000000
						CHANNELS 3 Yrotation Zrotation Xrotation 
						JOINT rHand
						{
							OFFSET -8.349810 0.000000 0.000000
							CHANNELS 3 Zrotation Yrotation Xrotation 
							End Site
							{
								OFFSET -4.106464 0.000000 0.000000
							}
						}
					}
				}
			}
		}
	}
	JOINT lThigh
	{
		OFFSET 5.338403 -1.642589 1.368821
		CHANNELS 3 Xrotation Zrotation Yrotation 
		JOINT lShin
		{
			OFFSET -2.053232 -20.12167 0.000000
			CHANNELS 3 Xrotation Zrotation Yrotation 
			JOINT lFoot
			{
				OFFSET 0.000000 -19.30038 -1.231939
				CHANNELS 3 Xrotation Yrotation Zrotation 
				End Site
				{
					OFFSET 0.000000 -2.463878 4.653993
				}
			}
		}
	}
	JOINT rThigh
	{
		OFFSET -5.338403 -1.642589 1.368821
		CHANNELS 3 Xrotation Zrotation Yrotation 
		JOINT rShin
		{
			OFFSET 2.053232 -20.12167 0.000000
			CHANNELS 3 Xrotation Zrotation Yrotation 
			JOINT rFoot
			{
				OFFSET 0.000000 -19.30038 -1.231939
				CHANNELS 3 Xrotation Yrotation Zrotation 
				End Site
				{
					OFFSET 0.000000 -2.463878 4.653993
				}
			}
		}
	}
}
MOTION
Frames:	19
Frame Time:	0.03333333
0.000000 43.52852 0.000000 0.000000 0.000000 0.000000 0.000000 0.000000 0.000000 0.000000 0.000000 0.000000 0.000000 0.000000 0.000000 0.000000 0.000000 0.000000 0.000000 0.000000 0.000000 0.000000 0.000000 0.000000 0.000000 0.000000 0.000000 0.000000 0.000000 0.000000 0.000000 0.000000 0.000000 0.000000 0.000000 0.000000 0.000000 0.000000 0.000000 0.000000 0.000000 0.000000 0.000000 0.000000 0.000000 0.000000 0.000000 0.000000 0.000000 0.000000 0.000000 0.000000 0.000000 0.000000 0.000000 0.000000 0.000000 0.000000 0.000000 0.000000 
11.00000 37.00000 0.000000 1.000000 0.000000 0.000000 1.000000 0.000000 0.000000 1.000000 0.000000 0.000000 1.000000 0.000000 0.000000 1.000000 0.000000 0.000000 0.000000 0.000000 1.000000 -47.00000 0.000000 1.000000 -90.00000 14.00000 0.000000 0.000000 0.000000 0.000000 0.000000 0.000000 1.000000 47.00000 0.000000 1.000000 90.00000 -14.00000 0.000000 0.000000 0.000000 0.000000 -25.00000 20.00000 13.00000 47.00000 0.000000 0.000000 -20.00000 0.000000 0.000000 -25.00000 -20.00000 -13.00000 47.00000 0.000000 0.000000 -20.00000 0.000000 0.000000 
11.33333 37.00000 -0.1666667 1.000000 0.000000 0.000000 1.000000 0.000000 0.000000 1.000000 0.000000 0.000000 1.000000 0.000000 0.000000 1.000000 0.000000 0.000000 0.000000 0.000000 1.000000 -39.16667 -12.83333 1.000000 -90.83334 14.00000 0.000000 0.000000 0.000000 0.000000 0.000000 0.000000 1.000000 39.16667 11.33333 1.000000 88.00000 -14.00000 0.000000 0.000000 0.000000 0.000000 -22.66667 20.00000 13.00000 62.16667 0.000000 0.000000 -20.00000 0.000000 0.000000 -22.66667 -20.00000 -13.00000 44.33333 0.000000 0.000000 -21.33333 0.1666667 1.333333 
11.66667 37.00000 -0.3333333 1.000000 0.000000 0.000000 1.000000 0.000000 0.000000 1.000000 0.000000 0.000000 1.000000 0.000000 0.000000 1.000000 0.000000 0.000000 0.000000 0.000000 1.000000 -31.33333 -25.66667 1.000000 -91.66666 14.00000 0.000000 0.000000 0.000000 0.000000 0.000000 0.000000 1.000000 31.33333 22.66667 1.000000 86.00000 -14.00000 0.000000 0.000000 0.000000 0.000000 -20.33333 20.00000 13.00000 77.33334 0.000000 0.000000 -20.00000 0.000000 0.000000 -20.33333 -20.00000 -13.00000 41.66667 0.000000 0.000000 -22.66667 0.3333333 2.666667 
12.00000 37.00000 -0.5000000 1.000000 0.000000 0.000000 1.000000 0.000000 0.000000 1.000000 0.000000 0.000000 1.000000 0.000000 0.000000 1.000000 0.000000 0.000000 0.000000 0.000000 1.000000 -23.50000 -38.50000 1.000000 -92.50000 14.00000 0.000000 0.000000 0.000000 0.000000 0.000000 0.000000 1.000000 23.50000 34.00000 1.000000 84.00000 -14.00000 0.000000 0.000000 0.000000 0.000000 -18.00000 20.00000 13.00000 92.50000 0.000000 0.000000 -20.00000 0.000000 0.000000 -18.00000 -20.00000 -13.00000 39.00000 0.000000 0.000000 -24.00000 0.5000000 4.000000 
12.33333 37.00000 -0.6666667 1.000000 0.000000 0.000000 1.000000 0.000000 0.000000 1.000000 0.000000 0.000000 1.000000 0.000000 0.000000 1.000000 0.000000 0.000000 0.000000 0.000000 1.000000 -15.66667 -51.33333 1.000000 -93.33334 14.00000 0.000000 0.000000 0.000000 0.000000 0.000000 0.000000 1.000000 15.66667 45.33333 1.000000 82.00000 -14.00000 0.000000 0.000000 0.000000 0.000000 -15.66667 20.00000 13.00000 107.6667 0.000000 0.000000 -20.00000 0.000000 0.000000 -15.66667 -20.00000 -13.00000 36.33333 0.000000 0.000000 -25.33333 0.6666667 5.333333 
12.66667 37.00000 -0.8333333 1.000000 0.000000 0.000000 1.000000 0.000000 0.000000 1.000000 0.000000 0.000000 1.000000 0.000000 0.000000 1.000000 0.000000 0.000000 0.000000 0.000000 1.000000 -7.833333 -64.16666 1.000000 -94.16666 14.00000 0.000000 0.000000 0.000000 0.000000 0.000000 0.000000 1.000000 7.833333 56.66667 1.000000 80.00000 -14.00000 0.000000 0.000000 0.000000 0.000000 -13.33333 20.00000 13.00000 122.8333 0.000000 0.000000 -20.00000 0.000000 0.000000 -13.33333 -20.00000 -13.00000 33.66667 0.000000 0.000000 -26.66667 0.8333333 6.666667 
13.00000 37.00000 -1.000000 1.000000 0.000000 0.000000 1.000000 0.000000 0.000000 1.000000 0.000000 0.000000 1.000000 0.000000 0.000000 1.000000 0.000000 0.000000 0.000000 0.000000 1.000000 0.000000 -77.00000 1.000000 -95.00000 14.00000 0.000000 0.000000 0.000000 0.000000 0.000000 0.000000 1.000000 0.000000 68.00000 1.000000 78.00000 -14.00000 0.000000 0.000000 0.000000 0.000000 -11.00000 20.00000 13.00000 138.0000 0.000000 0.000000 -20.00000 0.000000 0.000000 -11.00000 -20.00000 -13.00000 31.00000 0.000000 0.000000 -28.00000 1.000000 8.000000 
12.71429 37.00000 -0.8571429 1.000000 0.000000 0.000000 1.000000 0.000000 0.000000 1.000000 0.000000 0.000000 1.000000 0.000000 0.000000 1.000000 0.000000 0.000000 0.000000 0.000000 1.000000 -6.714286 -66.00000 1.000000 -94.28571 14.00000 0.000000 0.000000 0.000000 0.000000 0.000000 0.000000 1.000000 6.714286 58.28571 1.000000 79.71429 -14.00000 0.000000 0.000000 0.000000 0.000000 -13.00000 20.00000 13.00000 125.0000 0.000000 0.000000 -20.00000 0.000000 0.000000 -13.00000 -20.00000 -13.00000 33.28571 0.000000 0.000000 -26.85714 0.8571429 6.857143 
12.42857 37.00000 -0.7142857 1.000000 0.000000 0.000000 1.000000 0.000000 0.000000 1.000000 0.000000 0.000000 1.000000 0.000000 0.000000 1.000000 0.000000 0.000000 0.000000 0.000000 1.000000 -13.42857 -55.00000 1.000000 -93.57143 14.00000 0.000000 0.000000 0.000000 0.000000 0.000000 0.000000 1.000000 13.42857 48.57143 1.000000 81.42857 -14.00000 0.000000 0.000000 0.000000 0.000000 -15.00000 20.00000 13.00000 112.0000 0.000000 0.000000 -20.00000 0.000000 0.000000 -15.00000 -20.00000 -13.00000 35.57143 0.000000 0.000000 -25.71428 0.7142857 5.714286 
12.14286 37.00000 -0.5714286 1.000000 0.000000 0.000000 1.000000 0.000000 0.000000 1.000000 0.000000 0.000000 1.000000 0.000000 0.000000 1.000000 0.000000 0.000000 0.000000 0.000000 1.000000 -20.14286 -44.00000 1.000000 -92.85714 14.00000 0.000000 0.000000 0.000000 0.000000 0.000000 0.000000 1.000000 20.14286 38.85714 1.000000 83.14286 -14.00000 0.000000 0.000000 0.000000 0.000000 -17.00000 20.00000 13.00000 99.00000 0.000000 0.000000 -20.00000 0.000000 0.000000 -17.00000 -20.00000 -13.00000 37.85714 0.000000 0.000000 -24.57143 0.5714286 4.571429 
11.85714 37.00000 -0.4285714 1.000000 0.000000 0.000000 1.000000 0.000000 0.000000 1.000000 0.000000 0.000000 1.000000 0.000000 0.000000 1.000000 0.000000 0.000000 0.000000 0.000000 1.000000 -26.85714 -33.00000 1.000000 -92.14286 14.00000 0.000000 0.000000 0.000000 0.000000 0.000000 0.000000 1.000000 26.85714 29.14286 1.000000 84.85714 -14.00000 0.000000 0.000000 0.000000 0.000000 -19.00000 20.00000 13.00000 86.00000 0.000000 0.000000 -20.00000 0.000000 0.000000 -19.00000 -20.00000 -13.00000 40.14286 0.000000 0.000000 -23.42857 0.4285714 3.428571 
11.57143 37.00000 -0.2857143 1.000000 0.000000 0.000000 1.000000 0.000000 0.000000 1.000000 0.000000 0.000000 1.000000 0.000000 0.000000 1.000000 0.000000 0.000000 0.000000 0.000000 1.000000 -33.57143 -22.00000 1.000000 -91.42857 14.00000 0.000000 0.000000 0.000000 0.000000 0.000000 0.000000 1.000000 33.57143 19.42857 1.000000 86.57143 -14.00000 0.000000 0.000000 0.000000 0.000000 -21.00000 20.00000 13.00000 73.00000 0.000000 0.000000 -20.00000 0.000000 0.000000 -21.00000 -20.00000 -13.00000 42.42857 0.000000 0.000000 -22.28572 0.2857143 2.285714 
11.28571 37.00000 -0.1428571 1.000000 0.000000 0.000000 1.000000 0.000000 0.000000 1.000000 0.000000 0.000000 1.000000 0.000000 0.000000 1.000000 0.000000 0.000000 0.000000 0.000000 1.000000 -40.28571 -11.00000 1.000000 -90.71429 14.00000 0.000000 0.000000 0.000000 0.000000 0.000000 0.000000 1.000000 40.28571 9.714286 1.000000 88.28571 -14.00000 0.000000 0.000000 0.000000 0.000000 -23.00000 20.00000 13.00000 60.00000 0.000000 0.000000 -20.00000 0.000000 0.000000 -23.00000 -20.00000 -13.00000 44.71429 0.000000 0.000000 -21.14286 0.1428571 1.142857 
11.00000 37.00000 0.000000 1.000000 0.000000 0.000000 1.000000 0.000000 0.000000 1.000000 0.000000 0.000000 1.000000 0.000000 0.000000 1.000000 0.000000 0.000000 0.000000 0.000000 1.000000 -47.00000 0.000000 1.000000 -90.00000 14.00000 0.000000 0.000000 0.000000 0.000000 0.000000 0.000000 1.000000 47.00000 0.000000 1.000000 90.00000 -14.00000 0.000000 0.000000 0.000000 0.000000 -25.00000 20.00000 13.00000 47.00000 0.000000 0.000000 -20.00000 0.000000 0.000000 -25.00000 -20.00000 -13.00000 47.00000 0.000000 0.000000 -20.00000 0.000000 0.000000 
10.66667 37.00000 -0.1111111 1.000000 0.000000 0.000000 1.000000 0.000000 0.000000 1.000000 0.000000 0.000000 1.000000 0.000000 0.000000 1.000000 0.000000 0.000000 0.000000 0.000000 1.000000 -41.77778 -7.555555 1.000000 -88.66666 14.00000 0.000000 0.000000 0.000000 0.000000 0.000000 0.000000 1.000000 41.77778 8.555555 1.000000 90.55556 -14.00000 0.000000 0.000000 0.000000 0.000000 -23.44444 20.00000 13.00000 45.22222 0.000000 0.000000 -20.88889 -0.1111111 -0.8888889 -23.44444 -20.00000 -13.00000 57.11111 0.000000 0.000000 -20.00000 0.000000 0.000000 
10.33333 37.00000 -0.2222222 1.000000 0.000000 0.000000 1.000000 0.000000 0.000000 1.000000 0.000000 0.000000 1.000000 0.000000 0.000000 1.000000 0.000000 0.000000 0.000000 0.000000 1.000000 -36.55556 -15.11111 1.000000 -87.33334 14.00000 0.000000 0.000000 0.000000 0.000000 0.000000 0.000000 1.000000 36.55556 17.11111 1.000000 91.11111 -14.00000 0.000000 0.000000 0.000000 0.000000 -21.88889 20.00000 13.00000 43.44444 0.000000 0.000000 -21.77778 -0.2222222 -1.777778 -21.88889 -20.00000 -13.00000 67.22222 0.000000 0.000000 -20.00000 0.000000 0.000000 
10.00000 37.00000 -0.3333333 1.000000 0.000000 0.000000 1.000000 0.000000 0.000000 1.000000 0.000000 0.000000 1.000000 0.000000 0.000000 1.000000 0.000000 0.000000 0.000000 0.000000 1.000000 -31.33333 -22.66667 1.000000 -86.00000 14.00000 0.000000 0.000000 0.000000 0.000000 0.000000 0.000000 1.000000 31.33333 25.66667 1.000000 91.66666 -14.00000 0.000000 0.000000 0.000000 0.000000 -20.33333 20.00000 13.00000 41.66667 0.000000 0.000000 -22.66667 -0.3333333 -2.666667 -20.33333 -20.00000 -13.00000 77.33334 0.000000 0.000000 -20.00000 0.000000 0.000000 
9.666667 37.00000 -0.4444444 1.000000 0.000000 0.000000 1.000000 0.000000 0.000000 1.000000 0.000000 0.000000 1.000000 0.000000 0.000000 1.000000 0.000000 0.000000 0.000000 0.000000 1.000000 -26.11111 -30.22222 1.000000 -84.66666 14.00000 0.000000 0.000000 0.000000 0.000000 0.000000 0.000000 1.000000 26.11111 34.22222 1.000000 92.22222 -14.00000 0.000000 0.000000 0.000000 0.000000 -18.77778 20.00000 13.00000 39.88889 0.000000 0.000000 -23.55556 -0.4444444 -3.555556 -18.77778 -20.00000 -13.00000 87.44444 0.000000 0.000000 -20.00000 0.000000 0.000000 
